<svg width="32" height="35" viewBox="0 0 32 35" fill="none" xmlns="http://www.w3.org/2000/svg">
<path d="M10.5 25C7.79958 24.7895 3.50012 25.4699 3.50012 25.4699V33.3121H30.5001V27.7685C30.5001 27.7685 28.8142 25.4296 27 25.0001C23.6847 24.215 21.3671 27.9337 18 27.5C14.7177 27.0773 13.7962 25.257 10.5 25Z" fill="#F67A60"/>
<path fill-rule="evenodd" clip-rule="evenodd" d="M2 17.375V30.5C2 32.5684 3.68164 34.25 5.75 34.25H28.25C30.3184 34.25 32 32.5684 32 30.5V17.375H2ZM4 19.375V30.5C4 31.4638 4.78621 32.25 5.75 32.25H28.25C29.2138 32.25 30 31.4638 30 30.5V19.375H4Z" fill="#C58AEE"/>
<path d="M25.3383 0.979712C25.4514 0.949096 25.5604 0.925666 25.6709 0.907892L20.3976 10.0868L15.1885 11.4967L20.4686 2.29776L25.3383 0.979712Z" fill="#C58AEE"/>
<path d="M28.5336 1.57171C29.1119 1.99584 29.5786 2.59508 29.8404 3.31264C29.8769 3.41275 29.9095 3.51517 29.9378 3.61974L30.9175 7.23949L24.2436 9.04587L28.5336 1.57171Z" fill="#C58AEE"/>
<path d="M2.30447 14.984L1.95946 15.0773L0.979731 11.4576C0.439348 9.46106 1.62323 7.39848 3.61976 6.8581L7.58452 5.78499L2.30447 14.984Z" fill="#C58AEE"/>
<path d="M11.3482 12.5362L6.13915 13.9461L11.4192 4.74708L16.6282 3.33719L11.3482 12.5362Z" fill="#C58AEE"/>
</svg>
