<svg width="30" height="28" viewBox="0 0 30 28" fill="none" xmlns="http://www.w3.org/2000/svg">
<path d="M8.21958 16.4519C5.51916 16.2413 1.50012 18.3448 1.50012 18.3448V26.1871H28.5001V20.6434C28.5001 20.6434 26.0383 18.7744 24.2241 18.3448C20.9088 17.5598 19.1614 21.0771 15.7942 20.6434C12.5119 20.2207 11.5157 16.7089 8.21958 16.4519Z" fill="#F67A60"/>
<path d="M2.46656 3.43743C2.49728 3.40426 2.52926 3.37228 2.56243 3.34156L2.46656 3.43743ZM2 23.375V12.25H28V23.375C28 24.3388 27.2138 25.125 26.25 25.125H3.75C2.78621 25.125 2 24.3388 2 23.375ZM28 6.28936V6.375H27.9144L28 6.28936Z" stroke="#C58AEE" stroke-width="4"/>
</svg>
