<svg width="20" height="20" viewBox="0 0 20 20" fill="none" xmlns="http://www.w3.org/2000/svg">
<path fill-rule="evenodd" clip-rule="evenodd" d="M19.8703 15.4359C19.5598 16.2036 18.8302 16.5626 18.415 16.7312C18.0947 16.8587 17.7652 16.9616 17.4293 17.0388L17.4074 17.1226C17.3209 17.4897 17.1136 17.817 16.8188 18.0522C16.5106 18.2977 16.1249 18.4253 15.7311 18.4122H15.7168L15.6873 18.4112C15.4781 18.4024 15.2702 18.374 15.0664 18.3265C14.8539 18.2799 14.6371 18.256 14.4197 18.2551C14.2959 18.2551 14.172 18.2646 14.0454 18.2836C13.795 18.3614 13.5643 18.4923 13.3692 18.6674C12.4917 19.4688 11.3626 19.9395 10.1758 19.9989L10.1424 20.0008H10.1081C10.0719 20.0008 10.03 20.0008 9.98623 19.9989C9.95387 20.0002 9.92148 20.0008 9.88909 20.0008H9.8567L9.82528 19.9989C8.63803 19.9402 7.50841 19.4693 6.63091 18.6674C6.43572 18.4931 6.20548 18.3626 5.95566 18.2846C5.83185 18.2655 5.70803 18.256 5.58422 18.256C5.37088 18.2579 5.1585 18.2846 4.94897 18.3322C4.75849 18.3789 4.5642 18.4084 4.368 18.4217C3.95556 18.457 3.54477 18.3375 3.21559 18.0865C2.90407 17.8498 2.68401 17.5126 2.59272 17.1322C2.58491 17.1014 2.57729 17.0706 2.56986 17.0398C2.23391 16.963 1.90436 16.8604 1.58413 16.7331C1.16888 16.5626 0.441242 16.2036 0.131711 15.4397C0.0572275 15.2567 0.0134635 15.0627 0.00218413 14.8654V14.854C-0.0177465 14.4661 0.0992238 14.0835 0.332668 13.773C0.569817 13.4587 0.922206 13.2283 1.3346 13.1511C2.0616 13.0023 2.70767 12.5894 3.14797 11.992L3.16321 11.972L3.17845 11.953C3.38512 11.6978 3.56894 11.4196 3.72418 11.1235C3.62277 11.0902 3.52269 11.053 3.42417 11.012C3.10025 10.8793 2.79763 10.6996 2.52605 10.4787C2.23557 10.2349 1.62508 9.59675 1.79746 8.63196L1.81937 8.51196L1.86128 8.39767C2.01309 7.97538 2.29146 7.6102 2.65844 7.35193C3.03164 7.08972 3.47971 6.9554 3.93561 6.96907C3.9099 5.95285 4.02133 4.93569 4.26895 3.94995L4.29371 3.84995L4.33276 3.7547C4.78238 2.64908 5.54419 1.6983 6.5252 1.01845C7.49495 0.347871 8.6482 -0.00671914 9.82718 0.00318725L10.1548 0.000330014C11.3385 -0.0123738 12.497 0.341976 13.4711 1.01464C14.4532 1.69422 15.2163 2.64497 15.6673 3.7509L15.7064 3.84614L15.7321 3.94709C15.9782 4.93068 16.0901 5.94308 16.0645 6.95669H16.0721C16.3397 6.95669 16.6026 7.00716 16.8483 7.1005C17.1988 7.21479 17.5055 7.42241 17.7388 7.69289C17.9988 7.99385 18.1607 8.35958 18.216 8.74149L18.2293 8.83006L18.2302 8.91959C18.2502 9.99581 17.4207 10.6558 16.5731 11.013L16.5626 11.0177C16.4663 11.0567 16.3688 11.0926 16.2702 11.1254C16.5083 11.5882 16.8226 11.9959 17.195 12.3292C17.6483 12.734 18.1759 13.0178 18.7341 13.1654C19.1188 13.2549 19.4465 13.4797 19.6693 13.7778C19.9065 14.094 20.0169 14.4769 19.9979 14.8559V14.8616C19.9871 15.0588 19.944 15.2528 19.8703 15.4359ZM18.5445 14.9007C18.5599 14.8631 18.5689 14.8232 18.5712 14.7826C18.5741 14.7294 18.5582 14.6768 18.5264 14.634C18.4957 14.5926 18.4505 14.5643 18.3998 14.555C18.2901 14.5266 18.1815 14.4945 18.074 14.4588L18.0702 14.4569C17.7936 14.3653 17.5253 14.2503 17.2683 14.113C16.8995 13.9151 16.5554 13.6741 16.2435 13.3949C15.6115 12.8265 15.1165 12.1222 14.7959 11.3349L14.7911 11.3235C14.7205 11.2005 14.6763 11.0641 14.6613 10.9231C14.6464 10.782 14.6611 10.6394 14.7044 10.5044C14.7747 10.3434 14.8914 10.2071 15.0397 10.113L15.0873 10.0815C15.3083 9.94152 15.5711 9.85295 15.7768 9.78342L15.8149 9.77104L15.8245 9.76818L15.8349 9.76437C15.8968 9.74336 15.9581 9.72081 16.0188 9.69675L16.0435 9.68627L16.0607 9.67865H16.0626C16.1701 9.63149 16.2744 9.57741 16.375 9.51675C16.7245 9.30245 16.8045 9.09483 16.8016 8.9453C16.7851 8.82815 16.7356 8.71813 16.6588 8.62815C16.5841 8.54063 16.4844 8.47813 16.373 8.4491L16.3673 8.4472C16.2388 8.39269 16.0981 8.37361 15.9597 8.39196C15.903 8.40111 15.8479 8.41809 15.7959 8.44244C15.7161 8.48511 15.6338 8.52265 15.5492 8.55482L15.5397 8.55863C15.4897 8.57796 15.4388 8.59512 15.3873 8.61006L15.3816 8.61101C15.2492 8.64937 15.1133 8.67426 14.9759 8.6853C14.8096 8.68954 14.6477 8.63184 14.5216 8.52339L14.5482 8.03766L14.5521 7.97957C14.7172 6.74933 14.6474 5.49892 14.3463 4.29472C14.0011 3.44517 13.416 2.71448 12.6625 2.19181C11.9303 1.68587 11.0591 1.41965 10.1691 1.42989L9.82432 1.43179C8.93506 1.42226 8.0648 1.68917 7.33379 2.19562C6.58158 2.7183 5.99781 3.44867 5.65375 4.29758C5.35307 5.49989 5.28294 6.74829 5.44708 7.97671C5.4585 8.15862 5.46898 8.34148 5.4785 8.52339C5.33846 8.63969 5.1592 8.69796 4.97754 8.68625C4.8543 8.68056 4.73185 8.66334 4.61182 8.63482L4.60515 8.63387C4.43204 8.59219 4.26519 8.52783 4.10895 8.44244C4.04329 8.41106 3.97123 8.39541 3.89847 8.39672C3.74823 8.39076 3.60023 8.43462 3.4775 8.52148C3.35134 8.61114 3.25588 8.73752 3.20416 8.8834C3.16226 9.11959 3.33464 9.31674 3.54989 9.46532L3.60703 9.50341C3.72566 9.57911 3.85094 9.64382 3.98133 9.69675C4.06073 9.72981 4.14179 9.75874 4.22419 9.78342C4.46433 9.85746 4.69557 9.95775 4.91373 10.0825C4.93183 10.093 4.94802 10.1044 4.96516 10.1158C5.11142 10.2097 5.22646 10.345 5.29564 10.5044C5.33791 10.64 5.35194 10.7827 5.33687 10.924C5.3218 11.0652 5.27795 11.2018 5.20802 11.3254L5.20516 11.3349C4.97024 11.8805 4.66165 12.3913 4.288 12.853C3.86504 13.4165 3.31655 13.8737 2.68606 14.1883C2.34319 14.3578 1.97842 14.4816 1.60032 14.555C1.54961 14.5643 1.50435 14.5926 1.47365 14.634C1.44152 14.6767 1.42535 14.7292 1.42793 14.7826C1.43041 14.8235 1.43975 14.8638 1.45555 14.9016C1.51372 15.0264 1.6075 15.1311 1.72508 15.2026C1.91556 15.334 2.19557 15.454 2.56034 15.5607C2.66891 15.5921 2.78511 15.6226 2.90892 15.6521C3.12988 15.7045 3.3756 15.7531 3.64227 15.7969C3.76227 15.8159 3.8137 16.0255 3.88323 16.3655C3.91085 16.5083 3.94323 16.6493 3.98037 16.7893C3.99301 16.8528 4.02819 16.9097 4.07942 16.9493C4.1299 16.9874 4.19276 17.0055 4.25371 16.9969C4.37753 16.9903 4.49848 16.9722 4.61848 16.9426C4.93334 16.8692 5.25524 16.8303 5.57851 16.8264C5.80994 16.8264 6.04233 16.8474 6.2709 16.8893C6.75884 17.0218 7.20897 17.2668 7.58522 17.6046C8.21782 18.1861 9.03375 18.5284 9.89194 18.5722C9.92052 18.5722 9.94909 18.5712 9.97766 18.5684C10.0129 18.5712 10.0596 18.5722 10.1081 18.5722C10.9663 18.5284 11.7823 18.1861 12.4149 17.6046C12.7912 17.2667 13.2413 17.0215 13.7292 16.8884C13.9578 16.8474 14.1892 16.8264 14.4225 16.8264C14.7458 16.8275 15.068 16.8636 15.3835 16.9341C15.5026 16.9626 15.6245 16.9788 15.7454 16.9836H15.7664C15.8247 16.9884 15.8826 16.9707 15.9283 16.9341C15.9759 16.8958 16.0083 16.8417 16.0197 16.7817C16.0571 16.6429 16.0895 16.5028 16.1169 16.3617C16.1864 16.0226 16.2378 15.815 16.3569 15.795C16.6483 15.7474 16.9131 15.694 17.1493 15.6369C17.2512 15.6121 17.3474 15.5855 17.4388 15.5597C17.7721 15.4617 18.0359 15.3531 18.2245 15.234C18.2823 15.197 18.3373 15.1559 18.3893 15.1112C18.456 15.0541 18.509 14.9828 18.5445 14.9026V14.9007Z" fill="white"/>
</svg>
<svg width="20" height="20" viewBox="0 0 20 20" fill="none" xmlns="http://www.w3.org/2000/svg">
<path fill-rule="evenodd" clip-rule="evenodd" d="M19.8703 15.4359C19.5598 16.2036 18.8302 16.5626 18.415 16.7312C18.0947 16.8587 17.7652 16.9616 17.4293 17.0388L17.4074 17.1226C17.3209 17.4897 17.1136 17.817 16.8188 18.0522C16.5106 18.2977 16.1249 18.4253 15.7311 18.4122H15.7168L15.6873 18.4112C15.4781 18.4024 15.2702 18.374 15.0664 18.3265C14.8539 18.2799 14.6371 18.256 14.4197 18.2551C14.2959 18.2551 14.172 18.2646 14.0454 18.2836C13.795 18.3614 13.5643 18.4923 13.3692 18.6674C12.4917 19.4688 11.3626 19.9395 10.1758 19.9989L10.1424 20.0008H10.1081C10.0719 20.0008 10.03 20.0008 9.98623 19.9989C9.95387 20.0002 9.92148 20.0008 9.88909 20.0008H9.8567L9.82528 19.9989C8.63803 19.9402 7.50841 19.4693 6.63091 18.6674C6.43572 18.4931 6.20548 18.3626 5.95566 18.2846C5.83185 18.2655 5.70803 18.256 5.58422 18.256C5.37088 18.2579 5.1585 18.2846 4.94897 18.3322C4.75849 18.3789 4.5642 18.4084 4.368 18.4217C3.95556 18.457 3.54477 18.3375 3.21559 18.0865C2.90407 17.8498 2.68401 17.5126 2.59272 17.1322C2.58491 17.1014 2.57729 17.0706 2.56986 17.0398C2.23391 16.963 1.90436 16.8604 1.58413 16.7331C1.16888 16.5626 0.441242 16.2036 0.131711 15.4397C0.0572275 15.2567 0.0134635 15.0627 0.00218413 14.8654V14.854C-0.0177465 14.4661 0.0992238 14.0835 0.332668 13.773C0.569817 13.4587 0.922206 13.2283 1.3346 13.1511C2.0616 13.0023 2.70767 12.5894 3.14797 11.992L3.16321 11.972L3.17845 11.953C3.38512 11.6978 3.56894 11.4196 3.72418 11.1235C3.62277 11.0902 3.52269 11.053 3.42417 11.012C3.10025 10.8793 2.79763 10.6996 2.52605 10.4787C2.23557 10.2349 1.62508 9.59675 1.79746 8.63196L1.81937 8.51196L1.86128 8.39767C2.01309 7.97538 2.29146 7.6102 2.65844 7.35193C3.03164 7.08972 3.47971 6.9554 3.93561 6.96907C3.9099 5.95285 4.02133 4.93569 4.26895 3.94995L4.29371 3.84995L4.33276 3.7547C4.78238 2.64908 5.54419 1.6983 6.5252 1.01845C7.49495 0.347871 8.6482 -0.00671914 9.82718 0.00318725L10.1548 0.000330014C11.3385 -0.0123738 12.497 0.341976 13.4711 1.01464C14.4532 1.69422 15.2163 2.64497 15.6673 3.7509L15.7064 3.84614L15.7321 3.94709C15.9782 4.93068 16.0901 5.94308 16.0645 6.95669H16.0721C16.3397 6.95669 16.6026 7.00716 16.8483 7.1005C17.1988 7.21479 17.5055 7.42241 17.7388 7.69289C17.9988 7.99385 18.1607 8.35958 18.216 8.74149L18.2293 8.83006L18.2302 8.91959C18.2502 9.99581 17.4207 10.6558 16.5731 11.013L16.5626 11.0177C16.4663 11.0567 16.3688 11.0926 16.2702 11.1254C16.5083 11.5882 16.8226 11.9959 17.195 12.3292C17.6483 12.734 18.1759 13.0178 18.7341 13.1654C19.1188 13.2549 19.4465 13.4797 19.6693 13.7778C19.9065 14.094 20.0169 14.4769 19.9979 14.8559V14.8616C19.9871 15.0588 19.944 15.2528 19.8703 15.4359ZM18.5445 14.9007C18.5599 14.8631 18.5689 14.8232 18.5712 14.7826C18.5741 14.7294 18.5582 14.6768 18.5264 14.634C18.4957 14.5926 18.4505 14.5643 18.3998 14.555C18.2901 14.5266 18.1815 14.4945 18.074 14.4588L18.0702 14.4569C17.7936 14.3653 17.5253 14.2503 17.2683 14.113C16.8995 13.9151 16.5554 13.6741 16.2435 13.3949C15.6115 12.8265 15.1165 12.1222 14.7959 11.3349L14.7911 11.3235C14.7205 11.2005 14.6763 11.0641 14.6613 10.9231C14.6464 10.782 14.6611 10.6394 14.7044 10.5044C14.7747 10.3434 14.8914 10.2071 15.0397 10.113L15.0873 10.0815C15.3083 9.94152 15.5711 9.85295 15.7768 9.78342L15.8149 9.77104L15.8245 9.76818L15.8349 9.76437C15.8968 9.74336 15.9581 9.72081 16.0188 9.69675L16.0435 9.68627L16.0607 9.67865H16.0626C16.1701 9.63149 16.2744 9.57741 16.375 9.51675C16.7245 9.30245 16.8045 9.09483 16.8016 8.9453C16.7851 8.82815 16.7356 8.71813 16.6588 8.62815C16.5841 8.54063 16.4844 8.47813 16.373 8.4491L16.3673 8.4472C16.2388 8.39269 16.0981 8.37361 15.9597 8.39196C15.903 8.40111 15.8479 8.41809 15.7959 8.44244C15.7161 8.48511 15.6338 8.52265 15.5492 8.55482L15.5397 8.55863C15.4897 8.57796 15.4388 8.59512 15.3873 8.61006L15.3816 8.61101C15.2492 8.64937 15.1133 8.67426 14.9759 8.6853C14.8096 8.68954 14.6477 8.63184 14.5216 8.52339L14.5482 8.03766L14.5521 7.97957C14.7172 6.74933 14.6474 5.49892 14.3463 4.29472C14.0011 3.44517 13.416 2.71448 12.6625 2.19181C11.9303 1.68587 11.0591 1.41965 10.1691 1.42989L9.82432 1.43179C8.93506 1.42226 8.0648 1.68917 7.33379 2.19562C6.58158 2.7183 5.99781 3.44867 5.65375 4.29758C5.35307 5.49989 5.28294 6.74829 5.44708 7.97671C5.4585 8.15862 5.46898 8.34148 5.4785 8.52339C5.33846 8.63969 5.1592 8.69796 4.97754 8.68625C4.8543 8.68056 4.73185 8.66334 4.61182 8.63482L4.60515 8.63387C4.43204 8.59219 4.26519 8.52783 4.10895 8.44244C4.04329 8.41106 3.97123 8.39541 3.89847 8.39672C3.74823 8.39076 3.60023 8.43462 3.4775 8.52148C3.35134 8.61114 3.25588 8.73752 3.20416 8.8834C3.16226 9.11959 3.33464 9.31674 3.54989 9.46532L3.60703 9.50341C3.72566 9.57911 3.85094 9.64382 3.98133 9.69675C4.06073 9.72981 4.14179 9.75874 4.22419 9.78342C4.46433 9.85746 4.69557 9.95775 4.91373 10.0825C4.93183 10.093 4.94802 10.1044 4.96516 10.1158C5.11142 10.2097 5.22646 10.345 5.29564 10.5044C5.33791 10.64 5.35194 10.7827 5.33687 10.924C5.3218 11.0652 5.27795 11.2018 5.20802 11.3254L5.20516 11.3349C4.97024 11.8805 4.66165 12.3913 4.288 12.853C3.86504 13.4165 3.31655 13.8737 2.68606 14.1883C2.34319 14.3578 1.97842 14.4816 1.60032 14.555C1.54961 14.5643 1.50435 14.5926 1.47365 14.634C1.44152 14.6767 1.42535 14.7292 1.42793 14.7826C1.43041 14.8235 1.43975 14.8638 1.45555 14.9016C1.51372 15.0264 1.6075 15.1311 1.72508 15.2026C1.91556 15.334 2.19557 15.454 2.56034 15.5607C2.66891 15.5921 2.78511 15.6226 2.90892 15.6521C3.12988 15.7045 3.3756 15.7531 3.64227 15.7969C3.76227 15.8159 3.8137 16.0255 3.88323 16.3655C3.91085 16.5083 3.94323 16.6493 3.98037 16.7893C3.99301 16.8528 4.02819 16.9097 4.07942 16.9493C4.1299 16.9874 4.19276 17.0055 4.25371 16.9969C4.37753 16.9903 4.49848 16.9722 4.61848 16.9426C4.93334 16.8692 5.25524 16.8303 5.57851 16.8264C5.80994 16.8264 6.04233 16.8474 6.2709 16.8893C6.75884 17.0218 7.20897 17.2668 7.58522 17.6046C8.21782 18.1861 9.03375 18.5284 9.89194 18.5722C9.92052 18.5722 9.94909 18.5712 9.97766 18.5684C10.0129 18.5712 10.0596 18.5722 10.1081 18.5722C10.9663 18.5284 11.7823 18.1861 12.4149 17.6046C12.7912 17.2667 13.2413 17.0215 13.7292 16.8884C13.9578 16.8474 14.1892 16.8264 14.4225 16.8264C14.7458 16.8275 15.068 16.8636 15.3835 16.9341C15.5026 16.9626 15.6245 16.9788 15.7454 16.9836H15.7664C15.8247 16.9884 15.8826 16.9707 15.9283 16.9341C15.9759 16.8958 16.0083 16.8417 16.0197 16.7817C16.0571 16.6429 16.0895 16.5028 16.1169 16.3617C16.1864 16.0226 16.2378 15.815 16.3569 15.795C16.6483 15.7474 16.9131 15.694 17.1493 15.6369C17.2512 15.6121 17.3474 15.5855 17.4388 15.5597C17.7721 15.4617 18.0359 15.3531 18.2245 15.234C18.2823 15.197 18.3373 15.1559 18.3893 15.1112C18.456 15.0541 18.509 14.9828 18.5445 14.9026V14.9007Z" fill="white"/>
</svg>
